<svg width="168" height="39" viewBox="0 0 168 39" fill="none" xmlns="http://www.w3.org/2000/svg">
<path d="M15.2539 1.5625V30H9.41406V1.5625H15.2539ZM24.0039 1.5625V6.15234H0.800781V1.5625H24.0039ZM35.4297 25.2344V15.8203C35.4297 15.1432 35.319 14.5638 35.0977 14.082C34.8763 13.5872 34.5312 13.2031 34.0625 12.9297C33.6068 12.6562 33.0143 12.5195 32.2852 12.5195C31.6602 12.5195 31.1198 12.6302 30.6641 12.8516C30.2083 13.0599 29.8568 13.3659 29.6094 13.7695C29.362 14.1602 29.2383 14.6224 29.2383 15.1562H23.6133C23.6133 14.2578 23.8216 13.4049 24.2383 12.5977C24.6549 11.7904 25.2604 11.0807 26.0547 10.4688C26.849 9.84375 27.793 9.35547 28.8867 9.00391C29.9935 8.65234 31.2305 8.47656 32.5977 8.47656C34.2383 8.47656 35.6966 8.75 36.9727 9.29688C38.2487 9.84375 39.2513 10.6641 39.9805 11.7578C40.7227 12.8516 41.0938 14.2188 41.0938 15.8594V24.9023C41.0938 26.0612 41.1654 27.0117 41.3086 27.7539C41.4518 28.4831 41.6602 29.1211 41.9336 29.668V30H36.25C35.9766 29.4271 35.7682 28.7109 35.625 27.8516C35.4948 26.9792 35.4297 26.1068 35.4297 25.2344ZM36.1719 17.1289L36.2109 20.3125H33.0664C32.3242 20.3125 31.6797 20.3971 31.1328 20.5664C30.5859 20.7357 30.1367 20.9766 29.7852 21.2891C29.4336 21.5885 29.1732 21.9401 29.0039 22.3438C28.8477 22.7474 28.7695 23.1901 28.7695 23.6719C28.7695 24.1536 28.8802 24.5898 29.1016 24.9805C29.3229 25.3581 29.6419 25.6576 30.0586 25.8789C30.4753 26.0872 30.9635 26.1914 31.5234 26.1914C32.3698 26.1914 33.1055 26.0221 33.7305 25.6836C34.3555 25.3451 34.8372 24.9284 35.1758 24.4336C35.5273 23.9388 35.7096 23.4701 35.7227 23.0273L37.207 25.4102C36.9987 25.944 36.7122 26.4974 36.3477 27.0703C35.9961 27.6432 35.5469 28.1836 35 28.6914C34.4531 29.1862 33.7956 29.5964 33.0273 29.9219C32.2591 30.2344 31.3477 30.3906 30.293 30.3906C28.9518 30.3906 27.7344 30.1237 26.6406 29.5898C25.5599 29.043 24.7005 28.2943 24.0625 27.3438C23.4375 26.3802 23.125 25.2865 23.125 24.0625C23.125 22.9557 23.3333 21.9727 23.75 21.1133C24.1667 20.2539 24.7786 19.5312 25.5859 18.9453C26.4062 18.3464 27.4284 17.8971 28.6523 17.5977C29.8763 17.2852 31.2956 17.1289 32.9102 17.1289H36.1719ZM56.8555 24.1602C56.8555 23.7565 56.7383 23.3919 56.5039 23.0664C56.2695 22.7409 55.8333 22.4414 55.1953 22.168C54.5703 21.8815 53.6654 21.6211 52.4805 21.3867C51.4128 21.1523 50.4167 20.8594 49.4922 20.5078C48.5807 20.1432 47.7865 19.707 47.1094 19.1992C46.4453 18.6914 45.9245 18.0924 45.5469 17.4023C45.1693 16.6992 44.9805 15.8984 44.9805 15C44.9805 14.1146 45.1693 13.2812 45.5469 12.5C45.9375 11.7188 46.4909 11.0286 47.207 10.4297C47.9362 9.81771 48.8216 9.34245 49.8633 9.00391C50.918 8.65234 52.1029 8.47656 53.418 8.47656C55.2539 8.47656 56.8294 8.76953 58.1445 9.35547C59.4727 9.94141 60.4883 10.7487 61.1914 11.7773C61.9076 12.793 62.2656 13.9518 62.2656 15.2539H56.6406C56.6406 14.707 56.5234 14.2188 56.2891 13.7891C56.0677 13.3464 55.7161 13.0013 55.2344 12.7539C54.7656 12.4935 54.1536 12.3633 53.3984 12.3633C52.7734 12.3633 52.2331 12.474 51.7773 12.6953C51.3216 12.9036 50.9701 13.1901 50.7227 13.5547C50.4883 13.9062 50.3711 14.2969 50.3711 14.7266C50.3711 15.0521 50.4362 15.3451 50.5664 15.6055C50.7096 15.8529 50.9375 16.0807 51.25 16.2891C51.5625 16.4974 51.9661 16.6927 52.4609 16.875C52.9688 17.0443 53.5938 17.2005 54.3359 17.3438C55.8594 17.6562 57.2201 18.0664 58.418 18.5742C59.6159 19.069 60.5664 19.7461 61.2695 20.6055C61.9727 21.4518 62.3242 22.5651 62.3242 23.9453C62.3242 24.8828 62.1159 25.7422 61.6992 26.5234C61.2826 27.3047 60.6836 27.9883 59.9023 28.5742C59.1211 29.1471 58.1836 29.5964 57.0898 29.9219C56.0091 30.2344 54.7917 30.3906 53.4375 30.3906C51.4714 30.3906 49.8047 30.0391 48.4375 29.3359C47.0833 28.6328 46.0547 27.7409 45.3516 26.6602C44.6615 25.5664 44.3164 24.4466 44.3164 23.3008H49.6484C49.6745 24.069 49.8698 24.6875 50.2344 25.1562C50.612 25.625 51.0872 25.9635 51.6602 26.1719C52.2461 26.3802 52.8776 26.4844 53.5547 26.4844C54.2839 26.4844 54.8893 26.3867 55.3711 26.1914C55.8529 25.9831 56.2174 25.7096 56.4648 25.3711C56.7253 25.0195 56.8555 24.6159 56.8555 24.1602ZM76.3281 8.86719V12.8516H64.0234V8.86719H76.3281ZM67.0703 3.65234H72.6953V23.6328C72.6953 24.2448 72.7734 24.7135 72.9297 25.0391C73.099 25.3646 73.3464 25.5924 73.6719 25.7227C73.9974 25.8398 74.4076 25.8984 74.9023 25.8984C75.2539 25.8984 75.5664 25.8854 75.8398 25.8594C76.1263 25.8203 76.3672 25.7812 76.5625 25.7422L76.582 29.8828C76.1003 30.0391 75.5794 30.1628 75.0195 30.2539C74.4596 30.3451 73.8411 30.3906 73.1641 30.3906C71.9271 30.3906 70.8464 30.1888 69.9219 29.7852C69.0104 29.3685 68.3073 28.7044 67.8125 27.793C67.3177 26.8815 67.0703 25.6836 67.0703 24.1992V3.65234ZM85.8008 27.6172L91.4062 8.86719H97.4414L88.9453 33.1836C88.763 33.7174 88.5156 34.2904 88.2031 34.9023C87.9036 35.5143 87.4935 36.0938 86.9727 36.6406C86.4648 37.2005 85.8203 37.6562 85.0391 38.0078C84.2708 38.3594 83.3268 38.5352 82.207 38.5352C81.6732 38.5352 81.237 38.5026 80.8984 38.4375C80.5599 38.3724 80.1562 38.2812 79.6875 38.1641V34.043C79.8307 34.043 79.9805 34.043 80.1367 34.043C80.293 34.056 80.4427 34.0625 80.5859 34.0625C81.3281 34.0625 81.9336 33.9779 82.4023 33.8086C82.8711 33.6393 83.2487 33.3789 83.5352 33.0273C83.8216 32.6888 84.0495 32.2461 84.2188 31.6992L85.8008 27.6172ZM83.457 8.86719L88.0469 24.1797L88.8477 30.1367L85.0195 30.5469L77.4219 8.86719H83.457ZM111.172 17.5195H103.867L103.828 13.4961H109.961C111.042 13.4961 111.927 13.3594 112.617 13.0859C113.307 12.7995 113.822 12.3893 114.16 11.8555C114.512 11.3086 114.688 10.6445 114.688 9.86328C114.688 8.97786 114.518 8.26172 114.18 7.71484C113.854 7.16797 113.34 6.77083 112.637 6.52344C111.947 6.27604 111.055 6.15234 109.961 6.15234H105.898V30H100.039V1.5625H109.961C111.615 1.5625 113.092 1.71875 114.395 2.03125C115.71 2.34375 116.823 2.81901 117.734 3.45703C118.646 4.09505 119.342 4.90234 119.824 5.87891C120.306 6.84245 120.547 7.98828 120.547 9.31641C120.547 10.4883 120.28 11.569 119.746 12.5586C119.225 13.5482 118.398 14.3555 117.266 14.9805C116.146 15.6055 114.681 15.9505 112.871 16.0156L111.172 17.5195ZM110.918 30H102.266L104.551 25.4297H110.918C111.947 25.4297 112.786 25.2669 113.438 24.9414C114.089 24.6029 114.57 24.1471 114.883 23.5742C115.195 23.0013 115.352 22.3438 115.352 21.6016C115.352 20.7682 115.208 20.0456 114.922 19.4336C114.648 18.8216 114.206 18.3529 113.594 18.0273C112.982 17.6888 112.174 17.5195 111.172 17.5195H105.527L105.566 13.4961H112.598L113.945 15.0781C115.677 15.0521 117.07 15.3581 118.125 15.9961C119.193 16.6211 119.967 17.4349 120.449 18.4375C120.944 19.4401 121.191 20.5143 121.191 21.6602C121.191 23.4831 120.794 25.0195 120 26.2695C119.206 27.5065 118.04 28.4375 116.504 29.0625C114.98 29.6875 113.118 30 110.918 30ZM131.172 8.86719V30H125.527V8.86719H131.172ZM125.176 3.35938C125.176 2.53906 125.462 1.86198 126.035 1.32812C126.608 0.794271 127.376 0.527344 128.34 0.527344C129.29 0.527344 130.052 0.794271 130.625 1.32812C131.211 1.86198 131.504 2.53906 131.504 3.35938C131.504 4.17969 131.211 4.85677 130.625 5.39062C130.052 5.92448 129.29 6.19141 128.34 6.19141C127.376 6.19141 126.608 5.92448 126.035 5.39062C125.462 4.85677 125.176 4.17969 125.176 3.35938ZM146.172 8.86719V12.8516H133.867V8.86719H146.172ZM136.914 3.65234H142.539V23.6328C142.539 24.2448 142.617 24.7135 142.773 25.0391C142.943 25.3646 143.19 25.5924 143.516 25.7227C143.841 25.8398 144.251 25.8984 144.746 25.8984C145.098 25.8984 145.41 25.8854 145.684 25.8594C145.97 25.8203 146.211 25.7812 146.406 25.7422L146.426 29.8828C145.944 30.0391 145.423 30.1628 144.863 30.2539C144.303 30.3451 143.685 30.3906 143.008 30.3906C141.771 30.3906 140.69 30.1888 139.766 29.7852C138.854 29.3685 138.151 28.7044 137.656 27.793C137.161 26.8815 136.914 25.6836 136.914 24.1992V3.65234ZM159.102 30.3906C157.461 30.3906 155.99 30.1302 154.688 29.6094C153.385 29.0755 152.279 28.3398 151.367 27.4023C150.469 26.4648 149.779 25.3776 149.297 24.1406C148.815 22.8906 148.574 21.5625 148.574 20.1562V19.375C148.574 17.7734 148.802 16.3086 149.258 14.9805C149.714 13.6523 150.365 12.5 151.211 11.5234C152.07 10.5469 153.112 9.79818 154.336 9.27734C155.56 8.74349 156.94 8.47656 158.477 8.47656C159.974 8.47656 161.302 8.72396 162.461 9.21875C163.62 9.71354 164.59 10.4167 165.371 11.3281C166.165 12.2396 166.764 13.3333 167.168 14.6094C167.572 15.8724 167.773 17.2786 167.773 18.8281V21.1719H150.977V17.4219H162.246V16.9922C162.246 16.2109 162.103 15.5143 161.816 14.9023C161.543 14.2773 161.126 13.7826 160.566 13.418C160.007 13.0534 159.29 12.8711 158.418 12.8711C157.676 12.8711 157.038 13.0339 156.504 13.3594C155.97 13.6849 155.534 14.1406 155.195 14.7266C154.87 15.3125 154.622 16.0026 154.453 16.7969C154.297 17.5781 154.219 18.4375 154.219 19.375V20.1562C154.219 21.0026 154.336 21.7839 154.57 22.5C154.818 23.2161 155.163 23.8346 155.605 24.3555C156.061 24.8763 156.608 25.2799 157.246 25.5664C157.897 25.8529 158.633 25.9961 159.453 25.9961C160.469 25.9961 161.413 25.8008 162.285 25.4102C163.171 25.0065 163.932 24.401 164.57 23.5938L167.305 26.5625C166.862 27.2005 166.257 27.8125 165.488 28.3984C164.733 28.9844 163.822 29.4661 162.754 29.8438C161.686 30.2083 160.469 30.3906 159.102 30.3906Z" fill="#6FCF97"/>
</svg>
